<svg xmlns="http://www.w3.org/2000/svg" xmlns:xlink="http://www.w3.org/1999/xlink" id="Layer_1" width="24" height="24" enable-background="new 0 0 24 24" overflow="visible" version="1.1" viewBox="0 0 24 24" xml:space="preserve"><g id="Layer_1_1_"><path fill="#6F6F6F" d="M19.715,17.301c-0.017-0.018-1.717-1.854-1.73-6.32c-0.008-2.607-1.689-4.824-4.019-5.641 C13.984,5.229,14,5.117,14,5c0-1.103-0.896-2-2-2c-1.104,0-2,0.897-2,2c0,0.116,0.016,0.228,0.034,0.338 c-2.336,0.816-4.019,3.036-4.019,5.646c0,4.462-1.711,6.296-1.721,6.306c-0.287,0.286-0.374,0.716-0.22,1.091 C4.228,18.756,4.595,19,5,19h3.143c0.447,1.72,1.999,3,3.857,3c1.857,0,3.41-1.28,3.857-3H19c0.4,0,0.758-0.243,0.915-0.61 C20.072,18.023,19.991,17.591,19.715,17.301z M12,7c2.189,0,3.979,1.789,3.984,3.987c0.002,0.728,0.045,1.396,0.117,2.013h-8.2 c0.071-0.617,0.113-1.286,0.113-2.016C8.016,8.788,9.803,7,12,7z M12,20c-0.737,0-1.375-0.405-1.722-1h3.443 C13.375,19.595,12.736,20,12,20z M6.814,17c0.352-0.736,0.705-1.73,0.938-3h8.502c0.234,1.27,0.588,2.264,0.938,3H6.814z"/></g></svg>