<?xml version="1.0" encoding="utf-8"?>
<!-- Generator: Adobe Illustrator 12.0.0, SVG Export Plug-In . SVG Version: 6.00 Build 51448)  -->
<!DOCTYPE svg PUBLIC "-//W3C//DTD SVG 1.1//EN" "http://www.w3.org/Graphics/SVG/1.1/DTD/svg11.dtd" [
	<!ENTITY ns_svg "http://www.w3.org/2000/svg">
	<!ENTITY ns_xlink "http://www.w3.org/1999/xlink">
]>
<svg  version="1.1" id="Layer_1" xmlns="&ns_svg;" xmlns:xlink="&ns_xlink;" width="24" height="24" viewBox="0 0 24 24"
	 overflow="visible" enable-background="new 0 0 24 24" xml:space="preserve">
<g id="Layer_1_1_">
	<path fill="#FFFFFF" d="M17,2H9C7.346,2,6,3.346,6,5v14c0,0.514,0.104,0.946,0.308,1.285c0.564,0.935,1.815,1.008,2.813,0.008
		l3.172-3.172c0.375-0.374,1.039-0.374,1.414,0l3.172,3.172c0.491,0.491,1.002,0.74,1.52,0.74C19.195,21.033,20,20.404,20,19V5
		C20,3.346,18.654,2,17,2z M9,4h8c0.551,0,1,0.449,1,1v9.905l-2.451-2.247c-1.406-1.289-3.693-1.288-5.099,0L8,14.905V5
		C8,4.449,8.449,4,9,4z M15.121,15.707c-0.564-0.564-1.318-0.876-2.121-0.876c-0.803,0-1.556,0.312-2.121,0.876L8,18.586v-2.324
		l3.126-2.865c1.033-0.947,2.714-0.947,3.747,0L18,16.262v2.324L15.121,15.707z"/>
</g>
<g id="nyt_x5F_exporter_x5F_info" display="none">
</g>
</svg>
