<?xml version="1.0" encoding="utf-8"?>
<!-- Generator: Adobe Illustrator 12.0.0, SVG Export Plug-In . SVG Version: 6.00 Build 51448)  -->
<!DOCTYPE svg PUBLIC "-//W3C//DTD SVG 1.1//EN" "http://www.w3.org/Graphics/SVG/1.1/DTD/svg11.dtd" [
	<!ENTITY ns_svg "http://www.w3.org/2000/svg">
	<!ENTITY ns_xlink "http://www.w3.org/1999/xlink">
]>
<svg  version="1.1" id="Layer_1" xmlns="&ns_svg;" xmlns:xlink="&ns_xlink;" width="24" height="24" viewBox="0 0 24 24"
	 overflow="visible" enable-background="new 0 0 24 24" xml:space="preserve">
<path fill="#5BBA47" d="M12,3c0,0-6.186,5.34-9.643,8.232C2.154,11.416,2,11.684,2,12c0,0.553,0.447,1,1,1h2v7c0,0.553,0.447,1,1,1
	h3c0.553,0,1-0.448,1-1v-4h4v4c0,0.552,0.447,1,1,1h3c0.553,0,1-0.447,1-1v-7h2c0.553,0,1-0.447,1-1
	c0-0.316-0.154-0.584-0.383-0.768C18.184,8.34,12,3,12,3z"/>
</svg>
