<svg xmlns="http://www.w3.org/2000/svg" xmlns:xlink="http://www.w3.org/1999/xlink" id="Layer_1" width="24" height="24" enable-background="new 0 0 24 24" overflow="visible" version="1.1" viewBox="0 0 24 24" xml:space="preserve"><g><circle cx="8.5" cy="8.501" r="2.5" fill="#6F6F6F"/><path fill="#6F6F6F" d="M16,10c-2,0-3,3-4.5,3s-1.499-1-3.5-1c-2,0-3.001,4-3.001,4H19C19,16,18,10,16,10z"/><path fill="#6F6F6F" d="M20,3H4C2.897,3,2,3.897,2,5v12c0,1.104,0.897,2,2,2h16c1.104,0,2-0.896,2-2V5C22,3.897,21.104,3,20,3z M20,17H4V5h16V17z"/></g></svg>