<?xml version="1.0" encoding="utf-8"?>
<!-- Generator: Adobe Illustrator 12.0.0, SVG Export Plug-In . SVG Version: 6.00 Build 51448)  -->
<!DOCTYPE svg PUBLIC "-//W3C//DTD SVG 1.1//EN" "http://www.w3.org/Graphics/SVG/1.1/DTD/svg11.dtd" [
	<!ENTITY ns_svg "http://www.w3.org/2000/svg">
	<!ENTITY ns_xlink "http://www.w3.org/1999/xlink">
]>
<svg  version="1.1" id="Layer_1" xmlns="&ns_svg;" xmlns:xlink="&ns_xlink;" width="24" height="24" viewBox="0 0 24 24"
	 overflow="visible" enable-background="new 0 0 24 24" xml:space="preserve">
<g>
	<circle fill="#6F6F6F" cx="8.5" cy="8.501" r="2.5"/>
	<path fill="#6F6F6F" d="M16,10c-2,0-3,3-4.5,3s-1.499-1-3.5-1c-2,0-3.001,4-3.001,4H19C19,16,18,10,16,10z"/>
	<path fill="#6F6F6F" d="M20,3H4C2.897,3,2,3.897,2,5v12c0,1.104,0.897,2,2,2h16c1.104,0,2-0.896,2-2V5C22,3.897,21.104,3,20,3z
		 M20,17H4V5h16V17z"/>
</g>
</svg>
