<svg xmlns="http://www.w3.org/2000/svg" xmlns:xlink="http://www.w3.org/1999/xlink" id="Layer_1" width="24" height="24" enable-background="new 0 0 24 24" overflow="visible" version="1.1" viewBox="0 0 24 24" xml:space="preserve"><g><g><path fill="#6F6F6F" d="M16,19H8c-1.654,0-3-1.346-3-3V8c0-1.654,1.346-3,3-3h5c0.553,0,1,0.448,1,1s-0.447,1-1,1H8 C7.448,7,7,7.449,7,8v8c0,0.551,0.448,1,1,1h8c0.552,0,1-0.449,1-1v-3c0-0.552,0.447-1,1-1s1,0.448,1,1v3 C19,17.654,17.654,19,16,19z"/></g></g><g><g><path fill="#6F6F6F" d="M13.166,14.833c-0.35,0-0.689-0.139-0.941-0.392l-2.668-2.667c-0.52-0.521-0.52-1.365,0-1.885 c0.521-0.521,1.365-0.521,1.887,0l1.416,1.417l3.476-5.455c0.356-0.644,1.17-0.877,1.813-0.519s0.875,1.17,0.519,1.813l-4.334,7 c-0.203,0.365-0.565,0.614-0.979,0.673C13.289,14.829,13.229,14.833,13.166,14.833z"/></g></g></svg>