<?xml version="1.0" encoding="utf-8"?>
<!-- Generator: Adobe Illustrator 12.0.0, SVG Export Plug-In . SVG Version: 6.00 Build 51448)  -->
<!DOCTYPE svg PUBLIC "-//W3C//DTD SVG 1.1//EN" "http://www.w3.org/Graphics/SVG/1.1/DTD/svg11.dtd" [
	<!ENTITY ns_svg "http://www.w3.org/2000/svg">
	<!ENTITY ns_xlink "http://www.w3.org/1999/xlink">
]>
<svg  version="1.1" id="Layer_1" xmlns="&ns_svg;" xmlns:xlink="&ns_xlink;" width="24" height="24" viewBox="0 0 24 24"
	 overflow="visible" enable-background="new 0 0 24 24" xml:space="preserve">
<path fill="#5BBA47" d="M17.657,5.304c-3.124-3.073-8.189-3.073-11.313,0c-3.124,3.074-3.124,8.059,0,11.13L12,21.999l5.657-5.565
	C20.781,13.361,20.781,8.378,17.657,5.304z M12,13.499c-0.668,0-1.295-0.26-1.768-0.731c-0.975-0.976-0.975-2.562,0-3.537
	c0.472-0.472,1.1-0.732,1.768-0.732s1.296,0.26,1.768,0.732c0.977,0.975,0.977,2.562,0,3.537C13.296,13.239,12.668,13.499,12,13.499
	z"/>
</svg>
