<?xml version="1.0" encoding="utf-8"?>
<!-- Generator: Adobe Illustrator 12.0.0, SVG Export Plug-In . SVG Version: 6.00 Build 51448)  -->
<!DOCTYPE svg PUBLIC "-//W3C//DTD SVG 1.1//EN" "http://www.w3.org/Graphics/SVG/1.1/DTD/svg11.dtd" [
	<!ENTITY ns_svg "http://www.w3.org/2000/svg">
	<!ENTITY ns_xlink "http://www.w3.org/1999/xlink">
]>
<svg  version="1.1" id="Layer_1" xmlns="&ns_svg;" xmlns:xlink="&ns_xlink;" width="24" height="24" viewBox="0 0 24 24"
	 overflow="visible" enable-background="new 0 0 24 24" xml:space="preserve">
<g>
	<path fill="#5BBA47" d="M12,5c1.609,0,3.12,0.614,4.254,1.73C17.38,7.837,18,9.309,18,10.87c0,1.561-0.62,3.03-1.745,4.139
		L12,19.193l-4.254-4.187c-1.125-1.106-1.745-2.576-1.745-4.139c0-1.563,0.62-3.032,1.745-4.141C8.881,5.614,10.393,5,12,5 M12,3
		C9.953,3,7.904,3.768,6.343,5.305c-3.124,3.074-3.124,8.058,0,11.131L12,21.999l5.657-5.565c3.124-3.071,3.124-8.056,0-11.129
		C16.096,3.768,14.048,3,12,3z"/>
</g>
<g>
	<path fill="#5BBA47" d="M12,8.499c0.668,0,1.296,0.26,1.768,0.731c0.977,0.976,0.977,2.562,0,3.538
		c-0.473,0.472-1.1,0.73-1.768,0.73s-1.295-0.26-1.768-0.73c-0.976-0.977-0.976-2.563,0-3.538C10.705,8.759,11.333,8.499,12,8.499
		 M12,7.499c-0.896,0-1.792,0.342-2.475,1.024c-1.367,1.367-1.367,3.584,0,4.952c0.684,0.684,1.578,1.023,2.475,1.023
		c0.896,0,1.792-0.342,2.475-1.023c1.366-1.368,1.366-3.585,0-4.952C13.792,7.84,12.896,7.499,12,7.499z"/>
</g>
</svg>
