<?xml version="1.0" encoding="utf-8"?>
<!-- Generator: Adobe Illustrator 12.0.0, SVG Export Plug-In . SVG Version: 6.00 Build 51448)  -->
<!DOCTYPE svg PUBLIC "-//W3C//DTD SVG 1.1//EN" "http://www.w3.org/Graphics/SVG/1.1/DTD/svg11.dtd" [
	<!ENTITY ns_svg "http://www.w3.org/2000/svg">
	<!ENTITY ns_xlink "http://www.w3.org/1999/xlink">
]>
<svg  version="1.1" id="Layer_1" xmlns="&ns_svg;" xmlns:xlink="&ns_xlink;" width="24" height="24" viewBox="0 0 24 24"
	 overflow="visible" enable-background="new 0 0 24 24" xml:space="preserve">
<g>
	<path fill="#6F6F6F" d="M13.374,7.083l3.711-3.71l-0.438-0.434c-0.565-0.566-1.555-0.566-2.121,0l-1.586,1.586
		C12.656,4.809,12.5,5.186,12.5,5.586c0,0.4,0.156,0.777,0.438,1.06L13.374,7.083z"/>
	<path fill="#6F6F6F" d="M6.646,12.939c-0.566-0.566-1.555-0.566-2.121,0l-1.586,1.586C2.656,14.809,2.5,15.186,2.5,15.586
		s0.156,0.777,0.441,1.063l0.437,0.432l3.703-3.703L6.646,12.939z"/>
	<path fill="#6F6F6F" d="M18.438,4.729l-0.354-0.354l-3.708,3.708l0.65,0.649c0.095,0.095,0.146,0.22,0.146,0.354
		s-0.052,0.259-0.146,0.354l-5.586,5.585c-0.189,0.188-0.518,0.189-0.707,0l-0.65-0.649l-3.702,3.71l0.354,0.354
		c0.26,0.261,1.246,1.105,3.056,1.105c1.616,0,4.256-0.712,7.649-4.105C22.213,8.665,18.598,4.89,18.438,4.729z"/>
</g>
</svg>
