<?xml version="1.0" encoding="utf-8"?>
<!-- Generator: Adobe Illustrator 12.0.0, SVG Export Plug-In . SVG Version: 6.00 Build 51448)  -->
<!DOCTYPE svg PUBLIC "-//W3C//DTD SVG 1.1//EN" "http://www.w3.org/Graphics/SVG/1.1/DTD/svg11.dtd" [
	<!ENTITY ns_svg "http://www.w3.org/2000/svg">
	<!ENTITY ns_xlink "http://www.w3.org/1999/xlink">
]>
<svg  version="1.1" id="Layer_1" xmlns="&ns_svg;" xmlns:xlink="&ns_xlink;" width="24" height="24" viewBox="0 0 24 24"
	 overflow="visible" enable-background="new 0 0 24 24" xml:space="preserve">
<path fill="#231F20" d="M6.002,15.999C4.895,15.999,3.998,16.896,4,18c0,1.104,0.896,2.001,2.002,1.999
	C7.105,20.001,8.002,19.105,8,18C8.002,16.893,7.105,15.997,6.002,15.999z"/>
<path fill="#231F20" d="M6,4C4.896,4,4,4.896,4,6s0.896,2,2,2c5.514,0,10,4.486,10,10c0,1.104,0.896,2,2,2s2-0.896,2-2
	C20,10.28,13.721,4,6,4z"/>
<path fill="#231F20" d="M6,10c-1.104,0-2,0.896-2,2c0,1.104,0.896,2,2,2c2.205,0,4,1.794,4,4c0,1.104,0.896,2,2,2
	c1.104,0,2-0.896,2-2C14,13.589,10.411,10,6,10z"/>
</svg>
