<?xml version="1.0" encoding="utf-8"?>
<!-- Generator: Adobe Illustrator 12.0.0, SVG Export Plug-In . SVG Version: 6.00 Build 51448)  -->
<!DOCTYPE svg PUBLIC "-//W3C//DTD SVG 1.1//EN" "http://www.w3.org/Graphics/SVG/1.1/DTD/svg11.dtd" [
	<!ENTITY ns_svg "http://www.w3.org/2000/svg">
	<!ENTITY ns_xlink "http://www.w3.org/1999/xlink">
]>
<svg  version="1.1" id="Layer_1" xmlns="&ns_svg;" xmlns:xlink="&ns_xlink;" width="24" height="24" viewBox="0 0 24 24"
	 overflow="visible" enable-background="new 0 0 24 24" xml:space="preserve">
<g>
	<path fill="#231F20" d="M7.5,16c-2.206,0-4-1.794-4-4s1.794-4,4-4s4,1.794,4,4S9.706,16,7.5,16z M7.5,10c-1.103,0-2,0.897-2,2
		c0,1.104,0.897,2,2,2s2-0.896,2-2C9.5,10.897,8.603,10,7.5,10z"/>
</g>
<path fill="#231F20" d="M16.5,8c-2.206,0-4,1.794-4,4s1.794,4,4,4s4-1.794,4-4S18.706,8,16.5,8z"/>
</svg>
