<?xml version="1.0" encoding="utf-8"?>
<!-- Generator: Adobe Illustrator 12.0.0, SVG Export Plug-In . SVG Version: 6.00 Build 51448)  -->
<!DOCTYPE svg PUBLIC "-//W3C//DTD SVG 1.1//EN" "http://www.w3.org/Graphics/SVG/1.1/DTD/svg11.dtd" [
	<!ENTITY ns_svg "http://www.w3.org/2000/svg">
	<!ENTITY ns_xlink "http://www.w3.org/1999/xlink">
]>
<svg  version="1.1" id="Layer_1" xmlns="&ns_svg;" xmlns:xlink="&ns_xlink;" width="24" height="24" viewBox="0 0 24 24"
	 overflow="visible" enable-background="new 0 0 24 24" xml:space="preserve">
<g>
	<path fill="#231F20" d="M12.486,4.771c-4.23,0-6.363,3.033-6.363,5.562c0,1.533,0.581,2.894,1.823,3.401
		c0.205,0.084,0.387,0.004,0.446-0.222c0.041-0.157,0.138-0.553,0.182-0.717c0.061-0.221,0.037-0.3-0.127-0.495
		c-0.359-0.422-0.588-0.972-0.588-1.747c0-2.25,1.683-4.264,4.384-4.264c2.392,0,3.706,1.463,3.706,3.412
		c0,2.568-1.137,4.733-2.824,4.733c-0.932,0-1.629-0.77-1.405-1.715c0.268-1.13,0.786-2.347,0.786-3.16
		c0-0.729-0.392-1.336-1.2-1.336c-0.952,0-1.718,0.984-1.718,2.304c0,0.841,0.286,1.409,0.286,1.409s-0.976,4.128-1.146,4.852
		c-0.34,1.44-0.051,3.206-0.025,3.385c0.013,0.104,0.149,0.131,0.21,0.052c0.088-0.115,1.223-1.518,1.607-2.916
		c0.111-0.396,0.627-2.444,0.627-2.444c0.311,0.589,1.213,1.108,2.175,1.108c2.863,0,4.804-2.608,4.804-6.104
		C18.123,7.231,15.887,4.771,12.486,4.771z"/>
</g>
</svg>
