<?xml version="1.0" encoding="utf-8"?>
<!-- Generator: Adobe Illustrator 12.0.0, SVG Export Plug-In . SVG Version: 6.00 Build 51448)  -->
<!DOCTYPE svg PUBLIC "-//W3C//DTD SVG 1.1//EN" "http://www.w3.org/Graphics/SVG/1.1/DTD/svg11.dtd" [
	<!ENTITY ns_svg "http://www.w3.org/2000/svg">
	<!ENTITY ns_xlink "http://www.w3.org/1999/xlink">
]>
<svg  version="1.1" id="Layer_1" xmlns="&ns_svg;" xmlns:xlink="&ns_xlink;" width="24" height="24" viewBox="0 0 24 24"
	 overflow="visible" enable-background="new 0 0 24 24" xml:space="preserve">
<g>
	<path fill="#231F20" d="M18.891,7.012c0.808-0.496,1.342-1.173,1.604-2.034c-0.786,0.417-1.569,0.703-2.351,0.861
		c-0.703-0.756-1.594-1.14-2.66-1.14c-1.043,0-1.924,0.366-2.644,1.078c-0.715,0.717-1.076,1.588-1.076,2.604
		c0,0.309,0.039,0.585,0.117,0.819C8.806,9.096,6.26,7.82,4.254,5.364c-0.34,0.601-0.51,1.213-0.51,1.846
		c0,1.301,0.549,2.332,1.645,3.089c-0.625-0.053-1.176-0.211-1.645-0.47c0,0.929,0.273,1.705,0.82,2.388
		c0.549,0.676,1.254,1.107,2.115,1.291c-0.312,0.08-0.641,0.118-0.979,0.118c-0.312,0-0.533-0.026-0.664-0.083
		c0.23,0.757,0.664,1.371,1.291,1.841c0.625,0.472,1.344,0.722,2.152,0.743c-1.332,1.045-2.855,1.563-4.578,1.563
		c-0.422,0-0.721-0.006-0.902-0.039C4.696,18.753,6.585,19.3,8.675,19.3c2.139,0,4.029-0.542,5.675-1.626
		c1.645-1.078,2.858-2.408,3.639-3.974c0.783-1.564,1.172-3.192,1.172-4.892V8.34c0.758-0.57,1.371-1.212,1.84-1.921
		C20.32,6.712,19.617,6.911,18.891,7.012z"/>
</g>
</svg>
