<?xml version="1.0" encoding="utf-8"?>
<!-- Generator: Adobe Illustrator 12.0.0, SVG Export Plug-In . SVG Version: 6.00 Build 51448)  -->
<!DOCTYPE svg PUBLIC "-//W3C//DTD SVG 1.1//EN" "http://www.w3.org/Graphics/SVG/1.1/DTD/svg11.dtd" [
	<!ENTITY ns_svg "http://www.w3.org/2000/svg">
	<!ENTITY ns_xlink "http://www.w3.org/1999/xlink">
]>
<svg  version="1.1" id="Layer_1" xmlns="&ns_svg;" xmlns:xlink="&ns_xlink;" width="24" height="24" viewBox="0 0 24 24"
	 overflow="visible" enable-background="new 0 0 24 24" xml:space="preserve">
<g>
	<path fill="#231F20" d="M18.92,8.776c-0.329,1.929-1.211,3.758-2.648,5.48c-1.437,1.725-2.711,2.957-3.819,3.695
		c-0.699,0.331-1.293,0.34-1.786,0.034c-0.493-0.311-0.883-0.751-1.169-1.325c-0.165-0.328-0.565-1.569-1.202-3.729
		c-0.636-2.154-1.017-3.314-1.139-3.479C7.073,9.29,6.868,9.269,6.54,9.392C6.21,9.514,5.985,9.618,5.862,9.701
		C5.739,9.782,5.636,9.866,5.554,9.946L5,9.209l0.616-0.74c0.452-0.492,1.026-1.007,1.724-1.54c0.7-0.534,1.314-0.862,1.848-0.987
		c0.371-0.08,0.679-0.028,0.924,0.156c0.247,0.185,0.452,0.484,0.616,0.895c0.165,0.409,0.289,0.811,0.369,1.199
		c0.083,0.392,0.165,0.854,0.248,1.387c0.081,0.534,0.164,0.945,0.246,1.232c0.451,1.93,0.821,2.896,1.109,2.896
		c0.409,0,1.067-0.863,1.971-2.59c0.41-0.779,0.433-1.426,0.062-1.941c-0.369-0.512-0.942-0.521-1.724-0.029
		c0.123-0.78,0.472-1.456,1.046-2.031c1.026-1.109,2.157-1.521,3.389-1.234C18.716,6.128,19.208,7.094,18.92,8.776z"/>
</g>
</svg>
