<?xml version="1.0" encoding="utf-8"?>
<!-- Generator: Adobe Illustrator 12.0.0, SVG Export Plug-In . SVG Version: 6.00 Build 51448)  -->
<!DOCTYPE svg PUBLIC "-//W3C//DTD SVG 1.1//EN" "http://www.w3.org/Graphics/SVG/1.1/DTD/svg11.dtd" [
	<!ENTITY ns_svg "http://www.w3.org/2000/svg">
	<!ENTITY ns_xlink "http://www.w3.org/1999/xlink">
]>
<svg  version="1.1" id="Layer_1" xmlns="&ns_svg;" xmlns:xlink="&ns_xlink;" width="24" height="24" viewBox="0 0 24 24"
	 overflow="visible" enable-background="new 0 0 24 24" xml:space="preserve">
<path fill="#231F20" d="M12,3c-4.962,0-9,4.037-9,9s4.038,9,9,9s9-4.037,9-9S16.962,3,12,3z M18.962,11.275
	c-1.765-0.289-3.534-0.187-5.205,0.262c-0.18-0.436-0.383-0.859-0.59-1.283c1.422-0.81,2.685-1.912,3.713-3.262
	C18.023,8.105,18.789,9.603,18.962,11.275z M16.13,6.361c-0.938,1.243-2.101,2.259-3.401,3.009C11.947,7.925,11,6.57,9.922,5.314
	C10.579,5.11,11.277,5,12,5C13.545,5,14.971,5.51,16.13,6.361z M8.947,5.711c1.119,1.265,2.093,2.645,2.892,4.117
	c-2.061,0.957-4.396,1.294-6.717,0.899C5.53,8.515,6.982,6.669,8.947,5.711z M5,12c0-0.1,0.011-0.195,0.015-0.294
	c0.676,0.111,1.353,0.188,2.024,0.188c1.827,0,3.607-0.426,5.237-1.187c0.182,0.373,0.365,0.744,0.525,1.127
	C10.372,12.7,8.218,14.32,6.7,16.561C5.644,15.333,5,13.742,5,12z M7.393,17.257c1.43-2.129,3.465-3.673,5.764-4.487
	c0.683,1.854,1.122,3.795,1.292,5.779C13.686,18.836,12.861,19,12,19C10.235,19,8.625,18.339,7.393,17.257z M15.407,18.109
	c-0.196-1.933-0.632-3.822-1.294-5.632c1.564-0.404,3.223-0.486,4.871-0.19C18.883,14.789,17.469,16.955,15.407,18.109z"/>
</svg>
