<svg xmlns="http://www.w3.org/2000/svg" xmlns:xlink="http://www.w3.org/1999/xlink" id="Layer_1" width="24" height="24" enable-background="new 0 0 24 24" overflow="visible" version="1.1" viewBox="0 0 24 24" xml:space="preserve"><g><path fill="#231F20" d="M7.5,16c-2.206,0-4-1.794-4-4s1.794-4,4-4s4,1.794,4,4S9.706,16,7.5,16z M7.5,10c-1.103,0-2,0.897-2,2 c0,1.104,0.897,2,2,2s2-0.896,2-2C9.5,10.897,8.603,10,7.5,10z"/></g><path fill="#231F20" d="M16.5,8c-2.206,0-4,1.794-4,4s1.794,4,4,4s4-1.794,4-4S18.706,8,16.5,8z"/></svg>