<?xml version="1.0" encoding="utf-8"?>
<!-- Generator: Adobe Illustrator 12.0.0, SVG Export Plug-In . SVG Version: 6.00 Build 51448)  -->
<!DOCTYPE svg PUBLIC "-//W3C//DTD SVG 1.1//EN" "http://www.w3.org/Graphics/SVG/1.1/DTD/svg11.dtd" [
	<!ENTITY ns_svg "http://www.w3.org/2000/svg">
	<!ENTITY ns_xlink "http://www.w3.org/1999/xlink">
]>
<svg  version="1.1" id="Layer_1" xmlns="&ns_svg;" xmlns:xlink="&ns_xlink;" width="24" height="24" viewBox="0 0 24 24"
	 overflow="visible" enable-background="new 0 0 24 24" xml:space="preserve">
<path fill="#7D7D7D" d="M8,3H6C5.175,3,4.425,3.337,3.881,3.881S3,5.175,3,6v2c0,0.825,0.337,1.575,0.881,2.119S5.175,11,6,11h2
	c0.825,0,1.575-0.337,2.119-0.881S11,8.825,11,8V6c0-0.825-0.337-1.575-0.881-2.119S8.825,3,8,3z"/>
<path fill="#7D7D7D" d="M18,3h-2c-0.825,0-1.575,0.337-2.119,0.881S13,5.175,13,6v2c0,0.825,0.337,1.575,0.881,2.119
	S15.175,11,16,11h2c0.825,0,1.575-0.337,2.119-0.881S21,8.825,21,8V6c0-0.825-0.337-1.575-0.881-2.119S18.825,3,18,3z"/>
<path fill="#7D7D7D" d="M8,13H6c-0.825,0-1.575,0.337-2.119,0.881S3,15.175,3,16v2c0,0.825,0.337,1.575,0.881,2.119S5.175,21,6,21h2
	c0.825,0,1.575-0.337,2.119-0.881S11,18.825,11,18v-2c0-0.825-0.337-1.575-0.881-2.119S8.825,13,8,13z"/>
<path fill="#7D7D7D" d="M18,13h-2c-0.825,0-1.575,0.337-2.119,0.881S13,15.175,13,16v2c0,0.825,0.337,1.575,0.881,2.119
	S15.175,21,16,21h2c0.825,0,1.575-0.337,2.119-0.881S21,18.825,21,18v-2c0-0.825-0.337-1.575-0.881-2.119S18.825,13,18,13z"/>
</svg>
