<?xml version="1.0" encoding="utf-8"?>
<!-- Generator: Adobe Illustrator 12.0.0, SVG Export Plug-In . SVG Version: 6.00 Build 51448)  -->
<!DOCTYPE svg PUBLIC "-//W3C//DTD SVG 1.1//EN" "http://www.w3.org/Graphics/SVG/1.1/DTD/svg11.dtd" [
	<!ENTITY ns_svg "http://www.w3.org/2000/svg">
	<!ENTITY ns_xlink "http://www.w3.org/1999/xlink">
]>
<svg  version="1.1" id="Layer_1" xmlns="&ns_svg;" xmlns:xlink="&ns_xlink;" width="24" height="24" viewBox="0 0 24 24"
	 overflow="visible" enable-background="new 0 0 24 24" xml:space="preserve">
<path fill="#7D7D7D" d="M19,17H5c-1.103,0-2,0.896-2,2s0.897,2,2,2h14c1.104,0,2-0.896,2-2S20.104,17,19,17z"/>
<path fill="#7D7D7D" d="M19,10H5c-1.103,0-2,0.897-2,2c0,1.104,0.897,2,2,2h14c1.104,0,2-0.896,2-2C21,10.897,20.104,10,19,10z"/>
<path fill="#7D7D7D" d="M19,3H5C3.897,3,3,3.897,3,5s0.897,2,2,2h14c1.104,0,2-0.897,2-2S20.104,3,19,3z"/>
</svg>
