<svg xmlns="http://www.w3.org/2000/svg" xmlns:xlink="http://www.w3.org/1999/xlink" id="Layer_1" width="24" height="24" enable-background="new 0 0 24 24" overflow="visible" version="1.1" viewBox="0 0 24 24" xml:space="preserve"><path fill="#7D7D7D" d="M19,17H5c-1.103,0-2,0.896-2,2s0.897,2,2,2h14c1.104,0,2-0.896,2-2S20.104,17,19,17z"/><path fill="#7D7D7D" d="M19,10H5c-1.103,0-2,0.897-2,2c0,1.104,0.897,2,2,2h14c1.104,0,2-0.896,2-2C21,10.897,20.104,10,19,10z"/><path fill="#7D7D7D" d="M19,3H5C3.897,3,3,3.897,3,5s0.897,2,2,2h14c1.104,0,2-0.897,2-2S20.104,3,19,3z"/></svg>