<?xml version="1.0" encoding="utf-8"?>
<!-- Generator: Adobe Illustrator 12.0.0, SVG Export Plug-In . SVG Version: 6.00 Build 51448)  -->
<!DOCTYPE svg PUBLIC "-//W3C//DTD SVG 1.1//EN" "http://www.w3.org/Graphics/SVG/1.1/DTD/svg11.dtd" [
	<!ENTITY ns_svg "http://www.w3.org/2000/svg">
	<!ENTITY ns_xlink "http://www.w3.org/1999/xlink">
]>
<svg  version="1.1" id="Layer_1" xmlns="&ns_svg;" xmlns:xlink="&ns_xlink;" width="24" height="24" viewBox="0 0 24 24"
	 overflow="visible" enable-background="new 0 0 24 24" xml:space="preserve">
<g>
	<path fill="#FFFFFF" d="M16,13c0-0.55-0.45-1-1-1h-3c-0.55,0-1,0.45-1,1s0.45,1,1,1h3C15.55,14,16,13.55,16,13z"/>
</g>
<g>
	<path fill="#FFFFFF" d="M12,6c3.859,0,7,3.141,7,7c0,3.859-3.141,7-7,7c-3.859,0-7-3.141-7-7C5,9.141,8.141,6,12,6 M12,4
		c-4.971,0-9,4.029-9,9s4.029,9,9,9c4.971,0,9-4.029,9-9S16.971,4,12,4z"/>
</g>
<g>
	<path fill="#FFFFFF" d="M13,10c0-0.55-0.45-1-1-1s-1,0.45-1,1v3c0,0.55,0.45,1,1,1s1-0.45,1-1V10z"/>
</g>
<g>
	<path fill="#FFFFFF" d="M12,8c2.757,0,5,2.243,5,5s-2.243,5-5,5s-5-2.243-5-5S9.243,8,12,8 M12,7c-3.312,0-6,2.686-6,6
		c0,3.313,2.688,6,6,6c3.313,0,6-2.688,6-6C18,9.686,15.313,7,12,7z"/>
</g>
</svg>
