<svg xmlns="http://www.w3.org/2000/svg" xmlns:xlink="http://www.w3.org/1999/xlink" id="Layer_1" width="24" height="24" enable-background="new 0 0 24 24" overflow="visible" version="1.1" viewBox="0 0 24 24" xml:space="preserve"><path fill="#6F6F6F" d="M17,9c0-1.381-0.561-2.631-1.464-3.535C14.631,4.56,13.381,4,12,4S9.369,4.56,8.464,5.465	C7.56,6.369,7,7.619,7,9s0.56,2.631,1.464,3.535C9.369,13.439,10.619,14,12,14s2.631-0.561,3.536-1.465	C16.439,11.631,17,10.381,17,9z"/><path fill="#6F6F6F" d="M6,19c0,1,2.25,2,6,2c3.518,0,6-1,6-2c0-2-2.354-4-6-4C8.25,15,6,17,6,19z"/></svg>