<?xml version="1.0" encoding="utf-8"?>
<!-- Generator: Adobe Illustrator 12.0.0, SVG Export Plug-In . SVG Version: 6.00 Build 51448)  -->
<!DOCTYPE svg PUBLIC "-//W3C//DTD SVG 1.1//EN" "http://www.w3.org/Graphics/SVG/1.1/DTD/svg11.dtd" [
	<!ENTITY ns_svg "http://www.w3.org/2000/svg">
	<!ENTITY ns_xlink "http://www.w3.org/1999/xlink">
]>
<svg  version="1.1" id="Layer_1" xmlns="&ns_svg;" xmlns:xlink="&ns_xlink;" width="76.042" height="19" viewBox="0 0 76.042 19"
	 overflow="visible" enable-background="new 0 0 76.042 19" xml:space="preserve">
<rect x="0.042" fill="#FFFFFF" width="76" height="19"/>
<path fill="#979797" d="M3.958,2c0,0-3.875-0.19-3.875,4.424S0,14.32,0,14.32s0.167,4.376,3.917,4.376s7.625,0.096,7.625,0.096
	s4,0.047,4-4.377s0-7.943,0-7.943s0-4.472-4-4.472S3.958,2,3.958,2z"/>
<path fill="#DCDCDC" d="M4,2c0,0-3.875-0.163-3.875,3.776c0,3.939-0.083,6.741-0.083,6.741s0.167,3.735,3.917,3.735
	s7.625,0.082,7.625,0.082s4,0.04,4-3.736s0-6.781,0-6.781s0-3.817-4-3.817S4,2,4,2z"/>
<path fill="#979797" d="M23.458,2c0,0-3.875-0.191-3.875,4.446S19.5,14.383,19.5,14.383s0.167,4.396,3.917,4.396
	s7.625,0.097,7.625,0.097s4,0.047,4-4.398s0-7.982,0-7.982s0-4.494-4-4.494S23.458,2,23.458,2z"/>
<path fill="#DCDCDC" d="M23.468,2c0,0-3.885-0.163-3.885,3.776S19.5,12.518,19.5,12.518s0.167,3.733,3.927,3.733
	c3.761,0,7.646,0.082,7.646,0.082s4.01,0.041,4.01-3.736c0-3.776,0-6.78,0-6.78S35.083,2,31.072,2C27.062,2,23.468,2,23.468,2z"/>
<path fill="#787878" d="M25.278,5.583c0,0-2.026-0.08-2.026,1.843c0,1.924-0.043,3.294-0.043,3.294s0.087,1.824,2.047,1.824
	s3.987,0.039,3.987,0.039s2.09,0.021,2.09-1.825c0-1.845,0-3.312,0-3.312s0-1.864-2.09-1.864
	C27.152,5.583,25.278,5.583,25.278,5.583z"/>
</svg>
