<?xml version="1.0" encoding="utf-8"?>
<!-- Generator: Adobe Illustrator 12.0.0, SVG Export Plug-In . SVG Version: 6.00 Build 51448)  -->
<!DOCTYPE svg PUBLIC "-//W3C//DTD SVG 1.1//EN" "http://www.w3.org/Graphics/SVG/1.1/DTD/svg11.dtd" [
	<!ENTITY ns_svg "http://www.w3.org/2000/svg">
	<!ENTITY ns_xlink "http://www.w3.org/1999/xlink">
]>
<svg  version="1.1" id="Layer_1" xmlns="&ns_svg;" xmlns:xlink="&ns_xlink;" width="23.167" height="23.041"
	 viewBox="0 0 23.167 23.041" overflow="visible" enable-background="new 0 0 23.167 23.041" xml:space="preserve">
<g>
	<g>
		<path fill="#979797" d="M17.598,23.041c-0.278,0-0.548-0.062-0.799-0.181c-0.045-0.017-0.086-0.038-0.129-0.063l-5.088-2.902
			l-5.087,2.902c-0.044,0.024-0.087,0.046-0.132,0.066c-0.604,0.283-1.344,0.215-1.883-0.179c-0.583-0.422-0.869-1.154-0.725-1.868
			l1.185-5.749c-0.464-0.422-1.191-1.085-1.984-1.806l-2.347-2.137c-0.033-0.03-0.069-0.064-0.097-0.101
			c-0.464-0.492-0.631-1.202-0.421-1.847c0.214-0.65,0.768-1.13,1.437-1.25c0.042-0.012,0.083-0.018,0.126-0.022l5.824-0.646
			l2.411-5.338c0.021-0.047,0.044-0.093,0.075-0.137c0.324-0.585,0.946-0.956,1.621-0.956c0.674,0,1.295,0.369,1.622,0.954
			c0.026,0.045,0.051,0.09,0.074,0.14l2.413,5.34l5.823,0.646c0.044,0.003,0.086,0.01,0.132,0.02
			c0.666,0.125,1.218,0.602,1.431,1.254c0.213,0.645,0.043,1.359-0.421,1.85c-0.026,0.032-0.063,0.067-0.097,0.095l-4.333,3.947
			l1.186,5.739c0.141,0.726-0.146,1.457-0.73,1.881C18.367,22.92,17.992,23.041,17.598,23.041z M7.504,14.911
			c-0.048,0.225-0.577,2.781-1.047,5.057l4.512-2.573c0.379-0.215,0.846-0.215,1.227,0l4.512,2.57l-1.052-5.084
			c-0.089-0.429,0.056-0.873,0.382-1.167l3.838-3.495l-5.161-0.571c-0.435-0.05-0.809-0.324-0.992-0.724l-2.141-4.733L9.443,8.925
			C9.262,9.323,8.886,9.598,8.452,9.648l-5.163,0.571l3.84,3.495C7.466,14.018,7.607,14.477,7.504,14.911z"/>
	</g>
</g>
<g>
	<g>
		<path fill="#DCDCDC" d="M17.598,22.211c-0.276,0-0.548-0.062-0.799-0.181c-0.045-0.017-0.084-0.038-0.129-0.063l-5.088-2.902
			l-5.087,2.902c-0.044,0.026-0.087,0.048-0.131,0.068c-0.604,0.284-1.344,0.215-1.884-0.179c-0.582-0.422-0.868-1.155-0.725-1.87
			l1.185-5.748c-0.463-0.422-1.191-1.085-1.983-1.806l-2.347-2.136c-0.035-0.031-0.069-0.065-0.097-0.102
			C0.048,9.705-0.119,8.995,0.091,8.349c0.214-0.65,0.768-1.131,1.437-1.25C1.57,7.088,1.61,7.081,1.654,7.077l5.824-0.646
			l2.411-5.34c0.021-0.046,0.045-0.093,0.074-0.136C10.286,0.369,10.907,0,11.583,0c0.673,0,1.294,0.369,1.621,0.954
			c0.027,0.045,0.051,0.09,0.074,0.139l2.413,5.341l5.823,0.646c0.044,0.003,0.086,0.011,0.132,0.021
			c0.667,0.124,1.219,0.603,1.431,1.253c0.213,0.645,0.045,1.359-0.42,1.851c-0.027,0.032-0.064,0.066-0.097,0.095l-4.334,3.946
			l1.186,5.738c0.142,0.727-0.146,1.459-0.73,1.881C18.367,22.09,17.993,22.211,17.598,22.211z M11.583,3.363"/>
	</g>
</g>
</svg>
