<svg xmlns="http://www.w3.org/2000/svg" xmlns:cc="http://web.resource.org/cc/" xmlns:svg="http://www.w3.org/2000/svg" id="svg1" width="60" height="60" x="0" y="0" _SVGFile__filename="scalable/actions/connect_established.svg" version="1.0"><metadata id="metadata8"/><g id="g1003" transform="translate(48.90515,-4.392849e-2)"><g id="g1000" transform="translate(5.359892,-2.859892)"><path style="fill:none;fill-opacity:.75;fill-rule:evenodd;stroke:#333;stroke-width:3.9219477;stroke-linecap:round;stroke-linejoin:round;stroke-dasharray:3.9219476 3.9219476;stroke-dashoffset:0" id="path989" d="M 4.1454612,56.062859 C 11.874235,54.247455 14.178978,48.797113 19.238419,42.415192" transform="matrix(0.796798,0.000000,0.000000,0.796798,-49.69573,10.93786)"/><path style="fill:#b3b3b3;fill-opacity:1;fill-rule:evenodd;stroke:#333;stroke-width:2.861064;stroke-linecap:round;stroke-linejoin:round;stroke-miterlimit:4;stroke-opacity:1" id="rect2202" d="M 13.103050,31.896868 C 13.590527,32.310181 13.661781,33.026437 13.259939,33.500385 L 8.1145014,39.569102 C 5.6129476,42.519526 1.1844762,42.883998 -1.7658086,40.382563 C -4.7160918,37.881129 -5.0808247,33.452677 -2.5792700,30.502254 L 2.5661669,24.433537 C 2.9680093,23.959590 3.6862731,23.912737 4.1737512,24.326050 L 13.103050,31.896868 z" transform="matrix(1.092251,0.000000,0.000000,1.092251,-34.35426,3.032418)"/></g><g id="g997" transform="translate(-3.200541,2.500000)"><path style="fill:none;fill-opacity:.75;fill-rule:evenodd;stroke:#333;stroke-width:3.9219477;stroke-linecap:round;stroke-linejoin:round;stroke-dasharray:3.9219476 3.9219476;stroke-dashoffset:0" id="path990" d="M 5.8911263,17.354443 C -1.8376477,19.169847 -3.1842493,23.023286 -8.2436903,29.405207" transform="matrix(0.796798,0.000000,0.000000,0.796798,2.010800,-8.730895)"/><path style="fill:#7f7f7f;fill-opacity:1;fill-rule:evenodd;stroke:#333;stroke-width:2.861064;stroke-linecap:round;stroke-linejoin:round;stroke-miterlimit:4;stroke-opacity:1" id="path1655" d="M 13.103050,31.896868 C 13.590527,32.310181 13.661781,33.026437 13.259939,33.500385 L 8.1145014,39.569102 C 5.6129476,42.519526 1.1844762,42.883998 -1.7658086,40.382563 C -4.7160918,37.881129 -5.0808247,33.452677 -2.5792700,30.502254 L 2.5661669,24.433537 C 2.9680093,23.959590 3.6862731,23.912737 4.1737512,24.326050 L 13.103050,31.896868 z" transform="matrix(-1.092251,0.000000,0.000000,-1.092251,-5.317080,57.14815)"/></g></g></svg>